<?xml version="1.0" standalone="no"?>
<!DOCTYPE svg PUBLIC "-//W3C//DTD SVG 20010904//EN"
 "http://www.w3.org/TR/2001/REC-SVG-20010904/DTD/svg10.dtd">
<svg version="1.0" xmlns="http://www.w3.org/2000/svg"
 width="152.000000pt" height="179.000000pt" viewBox="0 0 152.000000 179.000000"
 preserveAspectRatio="xMidYMid meet">

<g transform="translate(0.000000,179.000000) scale(0.100000,-0.100000)"
fill="#000000" stroke="none">
<path d="M648 1710 c-128 -32 -246 -132 -306 -257 -33 -71 -37 -87 -40 -178
-4 -92 -1 -109 27 -195 37 -108 149 -336 309 -628 62 -111 112 -207 112 -212
0 -30 29 17 162 263 253 469 308 603 308 754 0 192 -93 338 -267 420 -67 32
-85 36 -171 39 -54 2 -114 -1 -134 -6z m262 -126 c78 -35 160 -121 189 -199
28 -75 28 -184 0 -268 -39 -118 -319 -667 -340 -667 -9 0 -178 314 -259 481
-112 233 -127 324 -77 459 36 97 146 192 254 220 63 16 166 4 233 -26z"/>
<path d="M695 1396 c-98 -42 -124 -173 -52 -250 66 -69 165 -70 233 -2 95 95
21 267 -113 266 -21 -1 -52 -7 -68 -14z"/>
<path d="M600 273 c-48 -8 -125 -36 -153 -55 -42 -30 -34 -66 20 -96 169 -93
633 -55 633 52 0 13 -8 30 -18 39 -26 24 -122 55 -191 63 l-60 6 -33 -67 c-34
-67 -34 -67 -50 -44 -8 13 -25 43 -37 67 -22 44 -34 48 -111 35z"/>
</g>
</svg>
