<?xml version="1.0" encoding="UTF-8"?>
<svg width="700pt" height="700pt" version="1.1" viewBox="0 0 700 700" xmlns="http://www.w3.org/2000/svg">
 <path d="m349.91-0.042969c-119.39 0-216.49 97.238-216.49 216.63 0 32.766 13.75 68.477 33.051 105.41 19.301 36.938 44.68 74.707 69.898 109.03 50.434 68.656 100.76 123.39 100.76 123.39v0.007813c3.3125 3.582 7.9688 5.6211 12.852 5.6211 4.8789 0 9.5391-2.0391 12.852-5.6211 0 0 50.328-54.734 100.76-123.39 25.215-34.328 50.598-72.098 69.898-109.03 19.301-36.938 33.086-72.645 33.086-105.41 0-119.39-97.273-216.63-216.66-216.63zm0 35c100.48 0 181.63 81.152 181.63 181.63 0 22.203-11.031 54.656-29.051 89.141-18.02 34.484-42.512 71.207-67.062 104.62-42.652 58.07-74.902 92.945-85.379 104.52-10.445-11.543-42.836-46.418-85.516-104.52-24.551-33.418-49.039-70.141-67.062-104.62-18.02-34.488-29.051-66.938-29.051-89.141 0-100.48 81.016-181.63 181.49-181.63zm0 86.543c-51.258 0-93.141 41.883-93.141 93.141s41.883 93.277 93.141 93.277c51.258 0 93.277-42.02 93.277-93.277s-42.02-93.141-93.277-93.141zm0 35.035c32.34 0 58.277 25.766 58.277 58.105s-25.938 58.277-58.277 58.277c-32.34 0-58.141-25.938-58.141-58.277s25.801-58.105 58.141-58.105z"/>
</svg>
